<svg width="1200" height="900" viewBox="0 0 1200 900" fill="none" xmlns="http://www.w3.org/2000/svg">
  <rect width="1200" height="900" rx="48" fill="url(#bg)"/>
  <circle cx="236" cy="192" r="126" fill="rgba(255,240,216,0.25)"/>
  <circle cx="950" cy="154" r="82" fill="rgba(255,255,255,0.14)"/>
  <circle cx="910" cy="684" r="140" fill="rgba(255,216,156,0.18)"/>
  <rect x="120" y="132" width="332" height="320" rx="34" fill="rgba(255,255,255,0.12)" stroke="rgba(255,255,255,0.24)"/>
  <rect x="170" y="196" width="230" height="20" rx="10" fill="rgba(255,255,255,0.56)"/>
  <rect x="170" y="246" width="172" height="18" rx="9" fill="rgba(255,255,255,0.32)"/>
  <rect x="170" y="292" width="138" height="18" rx="9" fill="rgba(255,255,255,0.22)"/>
  <path d="M150 644C286 542 430 730 594 608C710 522 796 566 938 464C996 422 1042 380 1078 350" stroke="#FFF1D8" stroke-width="20" stroke-linecap="round"/>
  <path d="M186 748C338 642 478 808 646 696C750 626 848 654 990 574C1052 538 1088 504 1110 478" stroke="rgba(255,255,255,0.34)" stroke-width="12" stroke-linecap="round"/>
  <path d="M766 210C816 274 816 350 766 414" stroke="#F8E3C4" stroke-width="18" stroke-linecap="round"/>
  <path d="M862 182C914 248 914 340 862 406" stroke="rgba(255,255,255,0.6)" stroke-width="14" stroke-linecap="round"/>
  <circle cx="874" cy="664" r="98" fill="rgba(0,0,0,0.16)" stroke="rgba(255,255,255,0.26)" stroke-width="4"/>
  <circle cx="874" cy="664" r="60" stroke="#FFF1D8" stroke-width="8"/>
  <defs>
    <linearGradient id="bg" x1="60" y1="48" x2="1130" y2="862" gradientUnits="userSpaceOnUse">
      <stop stop-color="#3A2215"/>
      <stop offset="0.52" stop-color="#7A4D2A"/>
      <stop offset="1" stop-color="#E7BF87"/>
    </linearGradient>
  </defs>
</svg>
