<svg width="1200" height="900" viewBox="0 0 1200 900" fill="none" xmlns="http://www.w3.org/2000/svg">
  <rect width="1200" height="900" rx="48" fill="url(#bg)"/>
  <circle cx="240" cy="200" r="120" fill="rgba(255,255,255,0.12)"/>
  <circle cx="970" cy="170" r="90" fill="rgba(255,225,183,0.18)"/>
  <circle cx="910" cy="690" r="150" fill="rgba(255,255,255,0.08)"/>
  <rect x="130" y="150" width="296" height="250" rx="34" fill="rgba(255,255,255,0.1)" stroke="rgba(255,255,255,0.18)"/>
  <rect x="184" y="210" width="190" height="18" rx="9" fill="rgba(255,255,255,0.54)"/>
  <rect x="184" y="256" width="148" height="18" rx="9" fill="rgba(255,255,255,0.28)"/>
  <rect x="184" y="302" width="118" height="18" rx="9" fill="rgba(255,255,255,0.18)"/>
  <path d="M196 668C330 578 452 730 618 622C718 556 814 598 960 520C1018 488 1064 454 1100 422" stroke="#FFF1D8" stroke-width="18" stroke-linecap="round"/>
  <path d="M212 758C360 662 492 790 666 696C768 640 858 668 992 612C1048 588 1088 562 1118 536" stroke="rgba(255,255,255,0.28)" stroke-width="10" stroke-linecap="round"/>
  <circle cx="792" cy="302" r="74" fill="rgba(0,0,0,0.16)" stroke="rgba(255,255,255,0.2)" stroke-width="4"/>
  <circle cx="896" cy="354" r="68" fill="rgba(255,255,255,0.1)" stroke="rgba(255,255,255,0.22)" stroke-width="4"/>
  <circle cx="844" cy="470" r="84" fill="rgba(255,196,130,0.18)" stroke="rgba(255,255,255,0.14)" stroke-width="4"/>
  <path d="M760 302L880 354L844 470L760 302Z" stroke="#FFF1D8" stroke-width="8" stroke-linejoin="round"/>
  <defs>
    <linearGradient id="bg" x1="92" y1="62" x2="1118" y2="854" gradientUnits="userSpaceOnUse">
      <stop stop-color="#073137"/>
      <stop offset="0.5" stop-color="#0D5C63"/>
      <stop offset="1" stop-color="#F1BE75"/>
    </linearGradient>
  </defs>
</svg>
